<svg width="9" height="12" viewBox="0 0 9 12" fill="none" xmlns="http://www.w3.org/2000/svg">
<path fill-rule="evenodd" clip-rule="evenodd" d="M6.92773 9.33203C7.99023 7.92969 9 6.16016 9 4.5C9 3.13281 8.38867 1.90625 7.42383 1.07812C6.63672 0.40625 5.61523 0 4.5 0C2.01562 0 0 2.01562 0 4.5C0 8 4.5 12 4.5 12C4.5 12 5.74609 10.8906 6.92773 9.33203ZM5.52344 5.59766C5.81641 5.32422 6 4.93359 6 4.5C6 3.67188 5.32812 3 4.5 3C3.67188 3 3 3.67188 3 4.5C3 5.32812 3.67188 6 4.5 6C4.89648 6 5.25586 5.84766 5.52344 5.59766Z" fill="#282423"/>
</svg>
