<?xml version="1.0" encoding="UTF-8"?>
<svg width="68px" height="67px" viewBox="0 0 68 67" version="1.1" xmlns="http://www.w3.org/2000/svg" xmlns:xlink="http://www.w3.org/1999/xlink">
    <!-- Generator: Sketch 54.1 (76490) - https://sketchapp.com -->
    <title>yacht</title>
    <desc>Created with Sketch.</desc>
    <g id="Empty-Page" stroke="none" stroke-width="1" fill="none" fill-rule="evenodd">
        <g id="Artboard-Copy" transform="translate(-570.000000, -879.000000)" fill-rule="nonzero">
            <g id="Block" transform="translate(568.000000, 876.000000)">
                <g id="yacht" transform="translate(2.000000, 2.000000)">
                    <path d="M35.66464,31.81584 L22.0601067,33.51584 L26.7827067,44.0671733 L42.2901067,43.17184 L35.66464,31.81584 Z M15.48224,44.7199733 L24.35964,44.2077067 L19.7073067,33.8105067 L18.27364,33.9895733 C17.2547733,34.17884 16.09084,35.1421733 15.2975067,36.4931067 C14.19704,38.37104 13.9681067,40.6331733 14.67304,42.7003733 L15.48224,44.7199733 Z M0.33184,49.06404 C4.57844,44.81744 6.79977333,38.2701733 6.79977333,33.99864 L2.26644,33.99864 C1.16824,33.99864 -0.000226666667,33.2041733 -0.000226666667,31.7319733 C-0.000226666667,28.75584 2.85124,27.19864 5.66644,27.19864 C7.88097333,27.19864 31.44184,26.0789067 31.6787067,26.0675733 L31.6809733,26.0675733 C35.53544,26.0675733 37.0223733,29.4029733 37.2955067,30.1135733 L45.1789733,43.6251733 C45.3773067,43.9663067 45.38524,44.38564 45.19824,44.73244 C45.0123733,45.0803733 44.6599067,45.3059067 44.2655067,45.3285733 L14.79884,47.0297067 C14.2865733,47.0467067 13.8615733,46.7701733 13.6813733,46.3191067 L12.54804,43.4857733 C11.6107733,40.7397067 11.9077067,37.79304 13.3425067,35.3473067 C14.47584,33.4149733 16.18944,32.07084 17.9291067,31.7501067 L34.45764,29.6829067 C33.9159067,29.01424 33.04324,28.3331067 31.7331067,28.3331067 C30.8151067,28.37844 7.93424,29.4653067 5.66644,29.4653067 C4.49004,29.4653067 2.26644,29.93904 2.26644,31.7319733 L6.79977333,31.7319733 C8.27197333,31.7319733 9.06644,32.8993067 9.06644,33.99864 C9.06644,38.4855067 6.93690667,45.43624 2.27097333,50.3231733 C2.34577333,54.73524 3.50517333,58.56704 5.33437333,60.3973733 C5.77750667,60.8393733 5.77750667,61.5567733 5.33437333,61.9999067 C5.11337333,62.2209067 4.82324,62.3319733 4.53310667,62.3319733 C4.24297333,62.3319733 3.95397333,62.2209067 3.73184,61.9999067 C1.39604,59.6629733 -0.000226666667,55.12624 -0.000226666667,49.8653067 C-0.000226666667,49.5649733 0.119906667,49.2759733 0.33184,49.06404 L0.33184,49.06404 Z M66.7723733,40.80204 L53.26644,41.9319733 C51.5279067,41.9319733 50.2823733,43.2965067 50.1463733,43.4517733 C50.11464,43.4891733 50.0851733,43.52884 50.05684,43.56964 L47.86044,46.8653733 C47.5431067,47.15324 46.89484,47.5963733 46.4041067,47.59864 L5.60410667,49.86644 C4.97850667,49.9015733 4.50024,50.4365067 4.53537333,51.0609733 C4.56937333,51.68544 5.10657333,52.1637067 5.72990667,52.1297067 L46.46644,49.86304 C48.02364,49.86304 49.38364,48.55064 49.5343733,48.3999067 C49.5865067,48.3477733 49.6341067,48.2899733 49.67604,48.2265067 L51.8917067,44.9035733 C52.1217733,44.6701067 52.70544,44.19864 53.3605067,44.1941067 L65.2525733,43.2035733 C61.6157067,53.25284 53.4353067,59.1019733 48.5109733,60.08684 C47.89784,60.2103733 47.4989067,60.80764 47.62244,61.4207733 C47.7301067,61.9591067 48.2027067,62.3319733 48.7319733,62.3319733 C48.80564,62.3319733 48.88044,62.32404 48.9563733,62.3093067 C55.6509733,60.97084 64.5839067,53.4885733 67.9521733,42.25724 C68.05984,41.8979733 67.9839067,41.50924 67.74704,41.2179733 C67.5113067,40.9267067 67.14524,40.76804 66.7723733,40.80204 L66.7723733,40.80204 Z M67.9669067,66.5933067 C68.0689067,67.2109733 67.65184,67.79464 67.0341733,67.89664 C66.6171067,67.96464 66.17964,67.9997733 65.7331067,67.9997733 C63.4913733,67.9997733 62.0497733,67.1509067 61.1997733,66.3723067 C60.3497733,67.1509067 58.9093067,67.9997733 56.66644,67.9997733 C54.4247067,67.9997733 52.9831067,67.1509067 52.1331067,66.3723067 C51.2831067,67.1509067 49.84264,67.9997733 47.5997733,67.9997733 C45.35804,67.9997733 43.91644,67.1509067 43.06644,66.3723067 C42.21644,67.1509067 40.7759733,67.9997733 38.5331067,67.9997733 C36.2913733,67.9997733 34.8497733,67.1509067 33.9997733,66.3723067 C33.1497733,67.1509067 31.7093067,67.9997733 29.46644,67.9997733 C27.2247067,67.9997733 25.7831067,67.1509067 24.9331067,66.3723067 C24.0831067,67.1509067 22.64264,67.9997733 20.3997733,67.9997733 C18.15804,67.9997733 16.71644,67.1509067 15.86644,66.3723067 C15.01644,67.1509067 13.5759733,67.9997733 11.3331067,67.9997733 C9.09137333,67.9997733 7.64977333,67.1509067 6.79977333,66.3723067 C5.94977333,67.1509067 4.50930667,67.9997733 2.26644,67.9997733 C1.81537333,67.9997733 1.40057333,67.96464 0.961973333,67.8909733 C0.344306667,67.7867067 -0.0704933333,67.2019067 0.0337733333,66.58424 C0.13804,65.9677067 0.71944,65.55064 1.34050667,65.65604 C1.65444,65.7093067 1.94117333,65.7331067 2.26644,65.7331067 C4.87197333,65.7331067 5.75710667,64.1453067 5.79450667,64.07844 C5.99510667,63.7067067 6.35664,63.4811733 6.81337333,63.4755067 C7.23610667,63.4811733 7.62484,63.71464 7.81410667,64.0931733 C7.84244,64.1453067 8.72757333,65.7331067 11.3331067,65.7331067 C13.93864,65.7331067 14.8237733,64.1453067 14.8611733,64.07844 C15.06064,63.7067067 15.4879067,63.4811733 15.88004,63.4755067 C16.3027733,63.4811733 16.6915067,63.71464 16.8807733,64.0931733 C16.9091067,64.1453067 17.79424,65.7331067 20.3997733,65.7331067 C23.0053067,65.7331067 23.89044,64.1453067 23.92784,64.07844 C24.1273067,63.7067067 24.53644,63.4811733 24.9467067,63.4755067 C25.36944,63.4811733 25.7581733,63.71464 25.94744,64.0931733 C25.9757733,64.1453067 26.8609067,65.7331067 29.46644,65.7331067 C32.0719733,65.7331067 32.9571067,64.1453067 32.9945067,64.07844 C33.1939733,63.7067067 33.5827067,63.4811733 34.0133733,63.4755067 C34.4361067,63.4811733 34.82484,63.71464 35.0141067,64.0931733 C35.04244,64.1453067 35.9275733,65.7331067 38.5331067,65.7331067 C41.13864,65.7331067 42.0237733,64.1453067 42.0611733,64.07844 C42.2617733,63.7067067 42.6301067,63.4811733 43.08004,63.4755067 C43.5027733,63.4811733 43.8915067,63.71464 44.0807733,64.0931733 C44.1091067,64.1453067 44.99424,65.7331067 47.5997733,65.7331067 C50.2053067,65.7331067 51.09044,64.1453067 51.12784,64.07844 C51.32844,63.7067067 51.67864,63.4811733 52.1467067,63.4755067 C52.56944,63.4811733 52.9581733,63.71464 53.14744,64.0931733 C53.1757733,64.1453067 54.0609067,65.7331067 56.66644,65.7331067 C59.2719733,65.7331067 60.1571067,64.1453067 60.1945067,64.07844 C60.3939733,63.7067067 60.8099067,63.4811733 61.2133733,63.4755067 C61.6361067,63.4811733 62.02484,63.71464 62.2141067,64.0931733 C62.24244,64.1453067 63.1275733,65.7331067 65.7331067,65.7331067 C66.0561067,65.7331067 66.37004,65.7081733 66.6647067,65.65944 C67.2937067,65.56084 67.86604,65.97564 67.9669067,66.5933067 L67.9669067,66.5933067 Z" fill="#282423"></path>
                    <path d="M48.7319733,10.19864 L52.24644,10.19864 C52.3949067,9.47557333 52.6827733,8.80577333 53.07604,8.21077333 L50.5849733,5.72197333 C50.14184,5.27997333 50.14184,4.56257333 50.58384,4.11944 C51.0269733,3.67517333 51.7443733,3.67630667 52.1875067,4.11830667 L54.6797067,6.60824 C55.2747067,6.21497333 55.94564,5.92710667 56.66644,5.77977333 L56.6641733,2.26417333 C56.6641733,1.63857333 57.1719067,1.13084 57.7975067,1.12970667 C58.4231067,1.12970667 58.93084,1.63744 58.93084,2.26304 L58.9331067,5.77977333 C59.65504,5.92710667 60.3259733,6.21497333 60.91984,6.60937333 L63.40864,4.11830667 C63.8517733,3.67517333 64.5691733,3.67517333 65.0123067,4.11717333 C65.4543067,4.56030667 65.4543067,5.27657333 65.0123067,5.72084 L62.52124,8.21190667 C62.91564,8.80690667 63.20464,9.47670667 63.3519733,10.19864 L66.86644,10.1975067 C67.49204,10.1975067 67.9997733,10.70524 67.9997733,11.33084 C67.9997733,11.9575733 67.4931733,12.4641733 66.86644,12.4641733 L63.35084,12.4653067 C63.2035067,13.18724 62.91564,13.85704 62.52124,14.45204 L65.0123067,16.94084 C65.4543067,17.3839733 65.4543067,18.1013733 65.0123067,18.5445067 C64.7901733,18.7655067 64.50004,18.8765733 64.2099067,18.8765733 C63.9209067,18.8765733 63.6307733,18.7655067 63.40864,18.5445067 L60.9187067,16.0545733 C60.32484,16.44784 59.6539067,16.73684 58.9319733,16.8841733 L58.9319733,20.39864 C58.9319733,21.02424 58.4253733,21.5319733 57.79864,21.5319733 C57.17304,21.5319733 56.6653067,21.02424 56.6653067,20.39864 L56.6653067,16.8841733 C55.9433733,16.73684 55.2735733,16.44784 54.6785733,16.0545733 L52.18864,18.5445067 C51.96764,18.7655067 51.6775067,18.8765733 51.3873733,18.8765733 C51.09724,18.8765733 50.8071067,18.7655067 50.5861067,18.5445067 C50.1429733,18.1013733 50.1429733,17.3839733 50.5861067,16.94084 L53.07604,14.45204 C52.6827733,13.85704 52.3949067,13.18724 52.24644,12.4653067 L48.7319733,12.4653067 C48.1063733,12.4653067 47.59864,11.9575733 47.59864,11.3319733 C47.59864,10.7063733 48.1063733,10.19864 48.7319733,10.19864 Z" id="yacht-path" fill="#E60028"></path>
                    <g id="Group" transform="translate(54.398640, 7.929707)" fill="#FFFFFF">
                        <path d="M0,3.40226667 C0,5.27566667 1.5232,6.8 3.3966,6.80113333 L3.4,6.80113333 L3.4034,6.80113333 C5.2768,6.8 6.79773333,5.27793333 6.8,3.40566667 C6.8,3.40453333 6.79886667,3.4034 6.79886667,3.40226667 C6.79886667,3.40113333 6.8,3.4 6.8,3.39886667 C6.79773333,1.52546667 5.27453333,0.00226666667 3.4,0.00226666667 C1.52546667,0.00226666667 0,1.5266 0,3.40226667 L0,3.40226667 Z" id="yacht-path"></path>
                    </g>
                </g>
            </g>
        </g>
    </g>
</svg>