<?xml version="1.0" encoding="UTF-8"?>
<svg width="64px" height="64px" viewBox="0 0 64 64" version="1.1" xmlns="http://www.w3.org/2000/svg" xmlns:xlink="http://www.w3.org/1999/xlink">
    <!-- Generator: Sketch 54.1 (76490) - https://sketchapp.com -->
    <title>medkit</title>
    <desc>Created with Sketch.</desc>
    <g id="Empty-Page" stroke="none" stroke-width="1" fill="none" fill-rule="evenodd">
        <g id="Artboard-Copy" transform="translate(-570.000000, -556.000000)" fill-rule="nonzero">
            <g id="Block" transform="translate(568.000000, 552.000000)">
                <g id="medkit" transform="translate(2.000000, 4.000000)">
                    <path d="M58.6666667,12.8 L5.33333333,12.8 C2.39253333,12.8 0,15.1925333 0,18.1333333 L0,24.5333333 C0,25.9797333 0.865066667,27.1445333 2.13333333,27.5648 L2.13333333,58.6666667 C2.13333333,61.6074667 4.52586667,64 7.46666667,64 L56.5333333,64 C59.4741333,64 61.8666667,61.6074667 61.8666667,58.6666667 L61.8666667,30.9333333 C61.8666667,30.3445333 61.3888,29.8666667 60.8,29.8666667 C60.2112,29.8666667 59.7333333,30.3445333 59.7333333,30.9333333 L59.7333333,58.6666667 C59.7333333,60.4309333 58.2976,61.8666667 56.5333333,61.8666667 L7.46666667,61.8666667 C5.7024,61.8666667 4.26666667,60.4309333 4.26666667,58.6666667 L4.26666667,26.6666667 C4.26666667,26.0778667 3.7888,25.6 3.2,25.6 C2.54186667,25.6 2.13333333,25.1914667 2.13333333,24.5333333 L2.13333333,18.1333333 C2.13333333,16.3690667 3.56906667,14.9333333 5.33333333,14.9333333 L58.6666667,14.9333333 C60.4309333,14.9333333 61.8666667,16.3690667 61.8666667,18.1333333 L61.8666667,24.5333333 C61.8666667,25.1808 61.4474667,25.6 60.8,25.6 L55.4666667,25.6 L55.4666667,21.3333333 C55.4666667,20.1568 54.5098667,19.2 53.3333333,19.2 L51.2,19.2 C50.0234667,19.2 49.0666667,20.1568 49.0666667,21.3333333 L49.0666667,25.6 L14.9333333,25.6 L14.9333333,21.3333333 C14.9333333,20.1568 13.9765333,19.2 12.8,19.2 L10.6666667,19.2 C9.49013333,19.2 8.53333333,20.1568 8.53333333,21.3333333 L8.53333333,25.6 L7.51146667,25.6 C6.9216,25.6 6.4448,26.0778667 6.4448,26.6666667 C6.4448,27.2554667 6.9216,27.7333333 7.51146667,27.7333333 L9.6,27.7333333 C10.1888,27.7333333 10.6666667,27.2554667 10.6666667,26.6666667 L10.6666667,21.3333333 L12.8,21.3333333 L12.8,26.6666667 C12.8,27.2554667 13.2778667,27.7333333 13.8666667,27.7333333 L50.1333333,27.7333333 C50.7221333,27.7333333 51.2,27.2554667 51.2,26.6666667 L51.2,21.3333333 L53.3333333,21.3333333 L53.3333333,26.6666667 C53.3333333,27.2554667 53.8112,27.7333333 54.4,27.7333333 L60.8,27.7333333 C62.624,27.7333333 64,26.3573333 64,24.5333333 L64,18.1333333 C64,15.1925333 61.6074667,12.8 58.6666667,12.8 L58.6666667,12.8 Z M20.2666667,10.6666667 C20.8554667,10.6666667 21.3333333,10.1888 21.3333333,9.6 C21.3333333,5.76213333 24.9621333,2.13333333 28.8,2.13333333 L35.2,2.13333333 C39.1082667,2.13333333 42.6666667,5.69173333 42.6666667,9.6 C42.6666667,10.1888 43.1445333,10.6666667 43.7333333,10.6666667 C44.3221333,10.6666667 44.8,10.1888 44.8,9.6 C44.8,4.4864 40.3136,0 35.2,0 L28.8,0 C23.776,0 19.2,4.576 19.2,9.6 C19.2,10.1888 19.6778667,10.6666667 20.2666667,10.6666667 L20.2666667,10.6666667 Z M50.1333333,29.8666667 C49.5445333,29.8666667 49.0666667,30.3445333 49.0666667,30.9333333 L49.0666667,32 C49.0666667,33.1765333 50.0234667,34.1333333 51.2,34.1333333 L53.3333333,34.1333333 C54.5098667,34.1333333 55.4666667,33.1765333 55.4666667,32 L55.4666667,30.9333333 C55.4666667,30.3445333 54.9888,29.8666667 54.4,29.8666667 C53.8112,29.8666667 53.3333333,30.3445333 53.3333333,30.9333333 L53.3333333,32 L51.2,32 L51.2,30.9333333 C51.2,30.3445333 50.7221333,29.8666667 50.1333333,29.8666667 L50.1333333,29.8666667 Z M9.6,29.8666667 C9.0112,29.8666667 8.53333333,30.3445333 8.53333333,30.9333333 L8.53333333,32 C8.53333333,33.1765333 9.49013333,34.1333333 10.6666667,34.1333333 L12.8,34.1333333 C13.9765333,34.1333333 14.9333333,33.1765333 14.9333333,32 L14.9333333,30.9333333 C14.9333333,30.3445333 14.4554667,29.8666667 13.8666667,29.8666667 C13.2778667,29.8666667 12.8,30.3445333 12.8,30.9333333 L12.8,32 L10.6666667,32 L10.6666667,30.9333333 C10.6666667,30.3445333 10.1888,29.8666667 9.6,29.8666667 L9.6,29.8666667 Z M40.5333333,9.6 C40.5333333,10.1888 40.0554667,10.6666667 39.4666667,10.6666667 C38.8778667,10.6666667 38.4,10.1888 38.4,9.6 C38.4,7.83573333 36.9642667,6.4 35.2,6.4 L28.8,6.4 C27.0357333,6.4 25.6,7.83573333 25.6,9.6 C25.6,10.1888 25.1221333,10.6666667 24.5333333,10.6666667 C23.9445333,10.6666667 23.4666667,10.1888 23.4666667,9.6 C23.4666667,6.6592 25.8592,4.26666667 28.8,4.26666667 L35.2,4.26666667 C38.1408,4.26666667 40.5333333,6.6592 40.5333333,9.6 L40.5333333,9.6 Z" fill="#000000"></path>
                    <path d="M28.8,46.9333333 C29.3888,46.9333333 29.8666667,47.4112 29.8666667,48 L29.8666667,53.3333333 L34.1333333,53.3333333 L34.1333333,48 C34.1333333,47.4112 34.6112,46.9333333 35.2,46.9333333 L40.5333333,46.9333333 L40.5333333,42.6666667 L35.2,42.6666667 C34.6112,42.6666667 34.1333333,42.1888 34.1333333,41.6 L34.1333333,36.2666667 L29.8666667,36.2666667 L29.8666667,41.6 C29.8666667,42.1888 29.3888,42.6666667 28.8,42.6666667 L23.4666667,42.6666667 L23.4666667,46.9333333 L28.8,46.9333333 Z" id="medkit-path" fill="#E60028"></path>
                    <path d="M27.7333333,54.4 L27.7333333,49.0666667 L22.4,49.0666667 C21.8112,49.0666667 21.3333333,48.5888 21.3333333,48 L21.3333333,41.6 C21.3333333,41.0112 21.8112,40.5333333 22.4,40.5333333 L27.7333333,40.5333333 L27.7333333,35.2 C27.7333333,34.6112 28.2112,34.1333333 28.8,34.1333333 L35.2,34.1333333 C35.7888,34.1333333 36.2666667,34.6112 36.2666667,35.2 L36.2666667,40.5333333 L41.6,40.5333333 C42.1888,40.5333333 42.6666667,41.0112 42.6666667,41.6 L42.6666667,48 C42.6666667,48.5888 42.1888,49.0666667 41.6,49.0666667 L36.2666667,49.0666667 L36.2666667,54.4 C36.2666667,54.9888 35.7888,55.4666667 35.2,55.4666667 L28.8,55.4666667 C28.2112,55.4666667 27.7333333,54.9888 27.7333333,54.4 L27.7333333,54.4 Z" id="medkit-path" fill="#E60028"></path>
                </g>
            </g>
        </g>
    </g>
</svg>