<?xml version="1.0" encoding="UTF-8"?>
<svg width="50px" height="62px" viewBox="0 0 50 62" version="1.1" xmlns="http://www.w3.org/2000/svg" xmlns:xlink="http://www.w3.org/1999/xlink">
    <!-- Generator: Sketch 54.1 (76490) - https://sketchapp.com -->
    <title>map_pin_corner</title>
    <desc>Created with Sketch.</desc>
    <defs>
        <path d="M50,25.6 C50,36.4738 35.2125,53.3354 28.3833,60.5425 C26.5241,62.5047 23.4759,62.5047 21.6167,60.5425 C14.7875,53.3354 0,36.4738 0,25.6 C0,11.4615 11.1929,0 25,0 C38.8071,0 50,11.4615 50,25.6 Z" id="path-1"></path>
    </defs>
    <g id="Empty-Page" stroke="none" stroke-width="1" fill="none" fill-rule="evenodd">
        <g id="map_pin_corner">
            <path d="M50,25.6 C50,36.4738 35.2125,53.3354 28.3833,60.5425 C26.5241,62.5047 23.4759,62.5047 21.6167,60.5425 C14.7875,53.3354 0,36.4738 0,25.6 C0,11.4615 11.1929,0 25,0 C38.8071,0 50,11.4615 50,25.6 Z" id="Path" fill="#F2F2F2" fill-rule="nonzero"></path>
            <g id="Clipped">
                <mask id="mask-2" fill="white">
                    <use xlink:href="#path-1"></use>
                </mask>
                <g id="Path"></g>
                <rect id="Rectangle" fill-rule="nonzero" mask="url(#mask-2)" x="12" y="52" width="25" height="10"></rect>
            </g>
            <circle id="Oval" fill="#282423" fill-rule="nonzero" cx="25" cy="25" r="5"></circle>
        </g>
    </g>
</svg>